<svg width="194.76" height="45.001" viewBox="0 0 194.76 45.001" xmlns="http://www.w3.org/2000/svg"><g id="svgGroup" stroke-linecap="round" fill-rule="evenodd" font-size="9pt" stroke="#000" stroke-width="0.25mm" fill="#000" style="stroke:#000;stroke-width:0.25mm;fill:#000"><path d="M 115.04 8.48 L 121.88 8.48 L 121.88 36.56 L 115.04 36.56 L 115.04 25 L 104.4 25 L 104.4 36.56 L 97.56 36.56 L 97.56 8.48 L 104.4 8.48 L 104.4 19.48 L 115.04 19.48 L 115.04 8.48 Z M 184.16 45 L 181.28 45 L 181.28 39.4 L 182.84 39.4 A 4.458 4.458 0 0 0 183.495 39.356 Q 183.824 39.307 184.086 39.204 A 1.647 1.647 0 0 0 184.68 38.82 A 1.818 1.818 0 0 0 185.089 38.129 Q 185.183 37.85 185.219 37.51 A 4.153 4.153 0 0 0 185.24 37.08 A 10.293 10.293 0 0 0 185.225 36.576 Q 185.183 35.749 185.026 34.163 A 158.859 158.859 0 0 0 184.92 33.12 A 215.839 215.839 0 0 1 184.78 31.551 Q 184.611 29.581 184.572 28.57 A 13.89 13.89 0 0 1 184.56 28.04 A 7.765 7.765 0 0 1 184.709 26.476 Q 184.918 25.461 185.418 24.673 A 4.708 4.708 0 0 1 185.62 24.38 Q 186.668 22.977 188.79 22.531 A 8.167 8.167 0 0 1 188.84 22.52 L 188.84 22.44 A 6.411 6.411 0 0 1 187.43 22.018 A 4.377 4.377 0 0 1 185.62 20.6 Q 184.56 19.16 184.56 16.96 A 15.279 15.279 0 0 1 184.577 16.307 Q 184.639 14.912 184.92 11.88 Q 185.23 8.855 185.24 7.936 A 5.42 5.42 0 0 0 185.24 7.88 A 3.817 3.817 0 0 0 185.191 7.244 Q 185.134 6.91 185.012 6.645 A 1.654 1.654 0 0 0 184.68 6.16 A 1.642 1.642 0 0 0 184.106 5.798 Q 183.615 5.606 182.886 5.6 A 5.755 5.755 0 0 0 182.84 5.6 L 181.28 5.6 L 181.28 0 L 184.16 0 A 10.328 10.328 0 0 1 186.527 0.256 A 7.025 7.025 0 0 1 189.72 1.9 A 6.211 6.211 0 0 1 191.617 5.314 A 9.216 9.216 0 0 1 191.8 7.2 A 23.353 23.353 0 0 1 191.752 8.661 Q 191.702 9.457 191.6 10.34 Q 191.4 12.08 191.36 12.4 A 123.496 123.496 0 0 0 191.204 13.699 Q 191.003 15.461 190.968 16.344 A 8.499 8.499 0 0 0 190.96 16.68 A 3.61 3.61 0 0 0 191.069 17.592 A 2.495 2.495 0 0 0 191.88 18.9 Q 192.782 19.665 194.685 19.757 A 10.221 10.221 0 0 0 194.76 19.76 L 194.76 25.2 A 7.899 7.899 0 0 0 193.74 25.304 Q 192.562 25.507 191.903 26.08 A 2.453 2.453 0 0 0 191.88 26.1 Q 190.96 26.92 190.96 28.28 Q 190.96 29.163 191.227 31.46 A 128.377 128.377 0 0 0 191.36 32.56 Q 191.394 32.834 191.545 34.143 A 1588.16 1588.16 0 0 1 191.6 34.62 A 32.927 32.927 0 0 1 191.747 36.226 Q 191.8 37.038 191.8 37.76 A 9.142 9.142 0 0 1 191.554 39.943 A 6.154 6.154 0 0 1 189.72 43.1 Q 187.64 45 184.16 45 Z M 0 25.2 L 0 19.76 A 8.316 8.316 0 0 0 1.02 19.66 Q 2.166 19.47 2.82 18.949 A 2.445 2.445 0 0 0 2.88 18.9 A 2.533 2.533 0 0 0 3.735 17.399 A 3.785 3.785 0 0 0 3.8 16.68 Q 3.8 15.798 3.533 13.501 A 128.377 128.377 0 0 0 3.4 12.4 Q 3.366 12.127 3.215 10.817 A 1588.16 1588.16 0 0 1 3.16 10.34 A 32.927 32.927 0 0 1 3.013 8.734 Q 2.96 7.922 2.96 7.2 Q 2.96 3.8 5.04 1.9 Q 7.12 0 10.6 0 L 13.48 0 L 13.48 5.6 L 11.92 5.6 A 4.614 4.614 0 0 0 11.265 5.643 Q 10.485 5.756 10.08 6.16 A 1.726 1.726 0 0 0 9.678 6.817 Q 9.52 7.264 9.52 7.88 Q 9.52 8.734 9.821 11.693 A 211.861 211.861 0 0 0 9.84 11.88 A 215.839 215.839 0 0 1 9.98 13.45 Q 10.149 15.42 10.188 16.431 A 13.89 13.89 0 0 1 10.2 16.96 A 7.506 7.506 0 0 1 10.032 18.593 A 5.275 5.275 0 0 1 9.14 20.6 A 4.393 4.393 0 0 1 7.275 22.042 A 6.466 6.466 0 0 1 5.92 22.44 L 5.92 22.52 Q 8.08 22.96 9.14 24.38 Q 10.158 25.744 10.198 27.864 A 9.265 9.265 0 0 1 10.2 28.04 A 15.279 15.279 0 0 1 10.183 28.694 Q 10.121 30.089 9.84 33.12 A 152.503 152.503 0 0 0 9.715 34.349 Q 9.566 35.89 9.531 36.672 A 9.333 9.333 0 0 0 9.52 37.08 A 3.827 3.827 0 0 0 9.572 37.733 Q 9.691 38.417 10.08 38.82 A 1.65 1.65 0 0 0 10.681 39.206 Q 11.18 39.4 11.92 39.4 L 13.48 39.4 L 13.48 45 L 10.6 45 A 10.328 10.328 0 0 1 8.233 44.744 A 7.025 7.025 0 0 1 5.04 43.1 A 6.198 6.198 0 0 1 3.163 39.76 A 9.314 9.314 0 0 1 2.96 37.76 A 23.353 23.353 0 0 1 3.008 36.3 Q 3.058 35.504 3.16 34.62 A 1511.061 1511.061 0 0 1 3.229 34.018 Q 3.368 32.82 3.4 32.56 A 123.496 123.496 0 0 0 3.556 31.262 Q 3.757 29.5 3.792 28.617 A 8.499 8.499 0 0 0 3.8 28.28 A 3.252 3.252 0 0 0 3.651 27.273 A 2.637 2.637 0 0 0 2.88 26.1 A 2.968 2.968 0 0 0 1.982 25.564 Q 1.558 25.398 1.031 25.306 A 7.88 7.88 0 0 0 0 25.2 Z M 142 14.24 L 148.84 14.24 L 148.84 36.56 L 142 36.56 L 142 33.52 A 7.281 7.281 0 0 1 139.821 35.542 A 8.854 8.854 0 0 1 139.18 35.9 A 8.458 8.458 0 0 1 135.774 36.786 A 10.042 10.042 0 0 1 135.24 36.8 Q 132.68 36.8 130.72 35.66 A 7.623 7.623 0 0 1 127.818 32.626 A 9.198 9.198 0 0 1 127.68 32.36 A 10.002 10.002 0 0 1 126.778 29.528 A 13.557 13.557 0 0 1 126.6 27.28 L 126.6 14.24 L 133.4 14.24 L 133.4 26.36 A 6.947 6.947 0 0 0 133.531 27.752 Q 133.701 28.582 134.091 29.222 A 3.791 3.791 0 0 0 134.56 29.84 A 3.842 3.842 0 0 0 136.861 31.021 A 5.451 5.451 0 0 0 137.68 31.08 A 5.204 5.204 0 0 0 139.035 30.913 A 3.755 3.755 0 0 0 140.84 29.84 A 4.072 4.072 0 0 0 141.776 28.136 Q 141.954 27.505 141.991 26.752 A 8.151 8.151 0 0 0 142 26.36 L 142 14.24 Z M 160.6 33.44 L 160.6 36.56 L 153.76 36.56 L 153.76 6.96 L 160.6 6.96 L 160.6 17.4 Q 161.56 15.84 163.36 14.88 A 8.146 8.146 0 0 1 166.216 13.996 A 10.249 10.249 0 0 1 167.48 13.92 Q 170.24 13.92 172.48 15.32 Q 174.72 16.72 176.02 19.32 A 12.128 12.128 0 0 1 177.137 22.898 A 15.965 15.965 0 0 1 177.32 25.36 A 15.44 15.44 0 0 1 177.005 28.548 A 11.999 11.999 0 0 1 176.02 31.42 A 10.586 10.586 0 0 1 174.26 33.988 A 9.184 9.184 0 0 1 172.48 35.46 Q 170.24 36.88 167.48 36.88 Q 165.12 36.88 163.36 35.94 A 7.581 7.581 0 0 1 161.377 34.44 A 6.931 6.931 0 0 1 160.6 33.44 Z M 68.8 27.04 L 53.32 27.04 A 6.426 6.426 0 0 0 53.551 28.355 Q 53.886 29.498 54.66 30.22 A 4.062 4.062 0 0 0 57.4 31.318 A 5.263 5.263 0 0 0 57.56 31.32 Q 60.051 31.32 61.065 29.275 A 4.772 4.772 0 0 0 61.12 29.16 L 68.4 29.16 Q 67.84 31.36 66.38 33.12 Q 64.92 34.88 62.72 35.88 Q 60.52 36.88 57.8 36.88 A 13.159 13.159 0 0 1 54.518 36.485 A 11.017 11.017 0 0 1 51.96 35.48 Q 49.4 34.08 47.96 31.48 A 11.368 11.368 0 0 1 46.69 27.689 A 14.859 14.859 0 0 1 46.52 25.4 A 14.453 14.453 0 0 1 46.832 22.331 A 11.198 11.198 0 0 1 47.94 19.32 Q 49.36 16.72 51.92 15.32 Q 54.48 13.92 57.8 13.92 A 13.177 13.177 0 0 1 61.039 14.304 A 10.921 10.921 0 0 1 63.56 15.28 Q 66.08 16.64 67.5 19.16 A 10.946 10.946 0 0 1 68.778 22.998 A 14.204 14.204 0 0 1 68.92 25.04 Q 68.92 26 68.8 27.04 Z M 77.72 14.24 L 82.56 30.16 L 87.4 14.24 L 94.68 14.24 L 86.76 36.56 L 78.32 36.56 L 70.4 14.24 L 77.72 14.24 Z M 29.32 36.56 L 18.8 36.56 L 18.8 8.48 L 29.32 8.48 A 18.97 18.97 0 0 1 33.236 8.867 A 14.577 14.577 0 0 1 37.08 10.24 Q 40.4 12 42.22 15.18 A 13.759 13.759 0 0 1 43.912 20.379 A 17.394 17.394 0 0 1 44.04 22.52 A 15.889 15.889 0 0 1 43.496 26.751 A 13.428 13.428 0 0 1 42.22 29.84 Q 40.4 33.04 37.06 34.8 A 15.103 15.103 0 0 1 32.22 36.352 A 19.549 19.549 0 0 1 29.32 36.56 Z M 28.88 14.32 L 25.64 14.32 L 25.64 30.64 L 28.88 30.64 A 11.404 11.404 0 0 0 31.331 30.393 Q 33.498 29.916 34.92 28.52 A 6.904 6.904 0 0 0 36.75 25.283 Q 37.039 24.192 37.075 22.895 A 13.485 13.485 0 0 0 37.08 22.52 Q 37.08 19.207 35.505 17.149 A 6.702 6.702 0 0 0 34.92 16.48 Q 32.838 14.398 29.156 14.323 A 13.612 13.612 0 0 0 28.88 14.32 Z M 169.268 21.716 A 4.587 4.587 0 0 0 168.94 21.34 Q 167.52 19.88 165.44 19.88 A 4.601 4.601 0 0 0 162.069 21.269 A 5.634 5.634 0 0 0 161.98 21.36 Q 160.56 22.84 160.56 25.4 A 7.446 7.446 0 0 0 160.739 27.084 Q 161.039 28.377 161.841 29.289 A 4.716 4.716 0 0 0 161.98 29.44 Q 163.4 30.92 165.44 30.92 A 4.632 4.632 0 0 0 168.829 29.513 A 5.789 5.789 0 0 0 168.92 29.42 Q 170.36 27.92 170.36 25.36 Q 170.36 23.115 169.268 21.716 Z M 53.36 23.24 L 61.92 23.24 A 4.169 4.169 0 0 0 61.737 21.975 A 3.33 3.33 0 0 0 60.72 20.44 Q 59.52 19.4 57.72 19.4 Q 56 19.4 54.82 20.4 A 4.034 4.034 0 0 0 53.641 22.123 A 5.727 5.727 0 0 0 53.36 23.24 Z" vector-effect="non-scaling-stroke"/></g></svg>